<?xml version="1.0" encoding="UTF-8" standalone="no"?>
<!-- Created with Inkscape (http://www.inkscape.org/) -->

<svg
   version="1.1"
   id="svg182"
   width="1610.2996"
   height="646.35248"
   viewBox="0 0 1610.2996 646.35248"
   sodipodi:docname="teaser_base.svg"
   xml:space="preserve"
   inkscape:version="1.2.2 (b0a8486, 2022-12-01)"
   inkscape:export-filename="teaser_base.png"
   inkscape:export-xdpi="200"
   inkscape:export-ydpi="200"
   xmlns:inkscape="http://www.inkscape.org/namespaces/inkscape"
   xmlns:sodipodi="http://sodipodi.sourceforge.net/DTD/sodipodi-0.dtd"
   xmlns:xlink="http://www.w3.org/1999/xlink"
   xmlns="http://www.w3.org/2000/svg"
   xmlns:svg="http://www.w3.org/2000/svg"><defs
     id="defs186"><linearGradient
       inkscape:collect="always"
       id="linearGradient6270"><stop
         style="stop-color:#00002d;stop-opacity:0.65760714;"
         offset="0"
         id="stop6266" /><stop
         style="stop-color:#000000;stop-opacity:0"
         offset="0.80710953"
         id="stop6268" /></linearGradient><clipPath
       clipPathUnits="userSpaceOnUse"
       id="clipPath346"><path
         d="M 488.258,85.836 H 762.231 V 327.574 H 488.258 Z"
         id="path344" /></clipPath><clipPath
       clipPathUnits="userSpaceOnUse"
       id="clipPath356"><path
         d="M 0,0 H 1208 V 485 H 0 Z"
         id="path354" /></clipPath><clipPath
       clipPathUnits="userSpaceOnUse"
       id="clipPath394"><path
         d="m 532,246 h 14 v 14 h -14 z"
         id="path392" /></clipPath><clipPath
       clipPathUnits="userSpaceOnUse"
       id="clipPath400"><path
         d="m 545.484,253.23 c 0,3.625 -2.941,6.567 -6.57,6.567 -3.629,0 -6.57,-2.942 -6.57,-6.567 0,-3.628 2.941,-6.57 6.57,-6.57 3.629,0 6.57,2.942 6.57,6.57 z"
         id="path398" /></clipPath><clipPath
       clipPathUnits="userSpaceOnUse"
       id="clipPath410"><path
         d="M 0,0 H 1208 V 485 H 0 Z"
         id="path408" /></clipPath><clipPath
       clipPathUnits="userSpaceOnUse"
       id="clipPath424"><path
         d="m 514,246 h 14 v 14 h -14 z"
         id="path422" /></clipPath><clipPath
       clipPathUnits="userSpaceOnUse"
       id="clipPath430"><path
         d="m 527.254,252.648 c 0,3.629 -2.942,6.571 -6.57,6.571 -3.629,0 -6.571,-2.942 -6.571,-6.571 0,-3.628 2.942,-6.57 6.571,-6.57 3.628,0 6.57,2.942 6.57,6.57 z"
         id="path428" /></clipPath><clipPath
       clipPathUnits="userSpaceOnUse"
       id="clipPath440"><path
         d="M 0,0 H 1208 V 485 H 0 Z"
         id="path438" /></clipPath><clipPath
       clipPathUnits="userSpaceOnUse"
       id="clipPath454"><path
         d="m 522,249 h 16 v 17 h -16 z"
         id="path452" /></clipPath><clipPath
       clipPathUnits="userSpaceOnUse"
       id="clipPath460"><path
         d="m 537.609,257.312 c 0,4.309 -3.488,7.797 -7.793,7.797 -4.308,0 -7.796,-3.488 -7.796,-7.797 0,-4.304 3.488,-7.792 7.796,-7.792 4.305,0 7.793,3.488 7.793,7.792 z"
         id="path458" /></clipPath><clipPath
       clipPathUnits="userSpaceOnUse"
       id="clipPath470"><path
         d="M 0,0 H 1208 V 485 H 0 Z"
         id="path468" /></clipPath><clipPath
       clipPathUnits="userSpaceOnUse"
       id="clipPath494"><path
         d="M 488.258,166.234 H 762.231 V 407.972 H 488.258 Z"
         id="path492" /></clipPath><clipPath
       clipPathUnits="userSpaceOnUse"
       id="clipPath504"><path
         d="M 0,0 H 1208 V 485 H 0 Z"
         id="path502" /></clipPath><clipPath
       clipPathUnits="userSpaceOnUse"
       id="clipPath642"><path
         d="M 996.945,85.836 H 1208 V 327.574 H 996.945 Z"
         id="path640" /></clipPath><clipPath
       clipPathUnits="userSpaceOnUse"
       id="clipPath652"><path
         d="M 0,0 H 1208 V 485 H 0 Z"
         id="path650" /></clipPath><clipPath
       clipPathUnits="userSpaceOnUse"
       id="clipPath690"><path
         d="m 1041,246 h 14 v 14 h -14 z"
         id="path688" /></clipPath><clipPath
       clipPathUnits="userSpaceOnUse"
       id="clipPath696"><path
         d="m 1054.168,253.227 c 0,3.628 -2.941,6.57 -6.57,6.57 -3.629,0 -6.571,-2.942 -6.571,-6.57 0,-3.629 2.942,-6.571 6.571,-6.571 3.629,0 6.57,2.942 6.57,6.571 z"
         id="path694" /></clipPath><clipPath
       clipPathUnits="userSpaceOnUse"
       id="clipPath706"><path
         d="M 0,0 H 1208 V 485 H 0 Z"
         id="path704" /></clipPath><clipPath
       clipPathUnits="userSpaceOnUse"
       id="clipPath720"><path
         d="m 1022,246 h 14 v 14 h -14 z"
         id="path718" /></clipPath><clipPath
       clipPathUnits="userSpaceOnUse"
       id="clipPath726"><path
         d="m 1035.938,252.648 c 0,3.629 -2.942,6.571 -6.571,6.571 -3.629,0 -6.57,-2.942 -6.57,-6.571 0,-3.628 2.941,-6.57 6.57,-6.57 3.629,0 6.571,2.942 6.571,6.57 z"
         id="path724" /></clipPath><clipPath
       clipPathUnits="userSpaceOnUse"
       id="clipPath736"><path
         d="M 0,0 H 1208 V 485 H 0 Z"
         id="path734" /></clipPath><clipPath
       clipPathUnits="userSpaceOnUse"
       id="clipPath750"><path
         d="m 1030,249 h 17 v 17 h -17 z"
         id="path748" /></clipPath><clipPath
       clipPathUnits="userSpaceOnUse"
       id="clipPath756"><path
         d="m 1046.293,257.312 c 0,4.305 -3.488,7.797 -7.793,7.797 -4.305,0 -7.797,-3.492 -7.797,-7.797 0,-4.304 3.492,-7.796 7.797,-7.796 4.305,0 7.793,3.492 7.793,7.796 z"
         id="path754" /></clipPath><clipPath
       clipPathUnits="userSpaceOnUse"
       id="clipPath766"><path
         d="M 0,0 H 1208 V 485 H 0 Z"
         id="path764" /></clipPath><clipPath
       clipPathUnits="userSpaceOnUse"
       id="clipPath790"><path
         d="M 996.945,166.234 H 1208 V 407.972 H 996.945 Z"
         id="path788" /></clipPath><clipPath
       clipPathUnits="userSpaceOnUse"
       id="clipPath800"><path
         d="M 0,0 H 1208 V 485 H 0 Z"
         id="path798" /></clipPath><style
       type="text/css"
       id="style4114">*{stroke-linejoin: round; stroke-linecap: butt}</style><style
       type="text/css"
       id="style4719">*{stroke-linejoin: round; stroke-linecap: butt}</style><style
       type="text/css"
       id="style5324">*{stroke-linejoin: round; stroke-linecap: butt}</style><radialGradient
       inkscape:collect="always"
       xlink:href="#linearGradient6270"
       id="radialGradient6272"
       cx="-103.94854"
       cy="212.91823"
       fx="-103.94854"
       fy="212.91823"
       r="84.718613"
       gradientTransform="matrix(2.5175223,0,1.8715998e-5,2.446137,482.95237,-277.3877)"
       gradientUnits="userSpaceOnUse" /></defs><sodipodi:namedview
     id="namedview184"
     pagecolor="#ffffff"
     bordercolor="#000000"
     borderopacity="0.25"
     inkscape:showpageshadow="2"
     inkscape:pageopacity="0.0"
     inkscape:pagecheckerboard="0"
     inkscape:deskcolor="#d1d1d1"
     showgrid="false"
     inkscape:zoom="0.82168321"
     inkscape:cx="573.82212"
     inkscape:cy="343.19796"
     inkscape:window-width="2560"
     inkscape:window-height="1371"
     inkscape:window-x="0"
     inkscape:window-y="32"
     inkscape:window-maximized="1"
     inkscape:current-layer="g190" /><g
     id="g190"
     inkscape:groupmode="layer"
     inkscape:label="Page 1"
     transform="matrix(1.3333333,0,0,1.3333333,0,1.7492146e-5)"><g
       id="g218"><g
         id="g220"><path
           d="m 674.707,29.926 h 19.824 v 127.105 h -19.824 z"
           style="fill:#f9f9f9;fill-opacity:1;fill-rule:nonzero;stroke:#000000;stroke-width:0.452232;stroke-linecap:butt;stroke-linejoin:round;stroke-miterlimit:4;stroke-dasharray:none;stroke-opacity:1"
           id="path222" /></g><g
         id="g224"><path
           d="m 716.207,29.926 h 19.824 v 127.105 h -19.824 z"
           style="fill:#f9f9f9;fill-opacity:1;fill-rule:nonzero;stroke:#000000;stroke-width:0.452232;stroke-linecap:butt;stroke-linejoin:round;stroke-miterlimit:4;stroke-dasharray:none;stroke-opacity:1"
           id="path226" /></g><g
         id="g228"><path
           d="m 757.711,29.926 h 19.824 v 127.105 h -19.824 z"
           style="fill:#f9f9f9;fill-opacity:1;fill-rule:nonzero;stroke:#000000;stroke-width:0.452232;stroke-linecap:butt;stroke-linejoin:round;stroke-miterlimit:4;stroke-dasharray:none;stroke-opacity:1"
           id="path230" /></g><g
         id="g232"><path
           d="m 799.211,29.926 h 19.824 v 127.105 h -19.824 z"
           style="fill:#f9f9f9;fill-opacity:1;fill-rule:nonzero;stroke:#000000;stroke-width:0.452232;stroke-linecap:butt;stroke-linejoin:round;stroke-miterlimit:4;stroke-dasharray:none;stroke-opacity:1"
           id="path234" /></g><g
         id="g236"><path
           d="m 694.223,93.477 h 20.601"
           style="fill:none;stroke:#000000;stroke-width:0.705743;stroke-linecap:butt;stroke-linejoin:miter;stroke-miterlimit:4;stroke-dasharray:none;stroke-opacity:1"
           id="path238" /></g><g
         id="g240"
         transform="scale(-1)"><path
           d="m -707.766,-93.477 2.821,-2.824 -9.879,2.824 9.879,2.825 z"
           style="fill:#000000;fill-opacity:1;fill-rule:evenodd;stroke:#000000;stroke-width:0.752792;stroke-linecap:butt;stroke-linejoin:round;stroke-miterlimit:4;stroke-dasharray:none;stroke-opacity:1"
           id="path242" /></g><g
         id="g244"><path
           d="m 735.977,93.477 h 20.597"
           style="fill:none;stroke:#000000;stroke-width:0.705743;stroke-linecap:butt;stroke-linejoin:miter;stroke-miterlimit:4;stroke-dasharray:none;stroke-opacity:1"
           id="path246" /></g><g
         id="g248"
         transform="scale(-1)"><path
           d="m -749.52,-93.477 2.825,-2.824 -9.879,2.824 9.879,2.825 z"
           style="fill:#000000;fill-opacity:1;fill-rule:evenodd;stroke:#000000;stroke-width:0.752792;stroke-linecap:butt;stroke-linejoin:round;stroke-miterlimit:4;stroke-dasharray:none;stroke-opacity:1"
           id="path250" /></g><g
         id="g252"><path
           d="m 777.621,93.477 h 20.602"
           style="fill:none;stroke:#000000;stroke-width:0.705743;stroke-linecap:butt;stroke-linejoin:miter;stroke-miterlimit:4;stroke-dasharray:none;stroke-opacity:1"
           id="path254" /></g><g
         id="g256"
         transform="scale(-1)"><path
           d="m -791.164,-93.477 2.82,-2.824 -9.879,2.824 9.879,2.825 z"
           style="fill:#000000;fill-opacity:1;fill-rule:evenodd;stroke:#000000;stroke-width:0.752793;stroke-linecap:butt;stroke-linejoin:round;stroke-miterlimit:4;stroke-dasharray:none;stroke-opacity:1"
           id="path258" /></g><g
         id="g260"><path
           d="m 674.707,331.711 h 19.824 v 127.105 h -19.824 z"
           style="fill:#f9f9f9;fill-opacity:1;fill-rule:nonzero;stroke:#000000;stroke-width:0.452232;stroke-linecap:butt;stroke-linejoin:round;stroke-miterlimit:4;stroke-dasharray:none;stroke-opacity:1"
           id="path262" /></g><g
         id="g264"><path
           d="m 716.211,331.711 h 19.82 v 127.105 h -19.82 z"
           style="fill:#f9f9f9;fill-opacity:1;fill-rule:nonzero;stroke:#000000;stroke-width:0.452232;stroke-linecap:butt;stroke-linejoin:round;stroke-miterlimit:4;stroke-dasharray:none;stroke-opacity:1"
           id="path266" /></g><g
         id="g268"><path
           d="m 757.711,331.711 h 19.824 v 127.105 h -19.824 z"
           style="fill:#f9f9f9;fill-opacity:1;fill-rule:nonzero;stroke:#000000;stroke-width:0.452232;stroke-linecap:butt;stroke-linejoin:round;stroke-miterlimit:4;stroke-dasharray:none;stroke-opacity:1"
           id="path270" /></g><g
         id="g272"><path
           d="m 799.215,331.711 h 19.824 v 127.105 h -19.824 z"
           style="fill:#f9f9f9;fill-opacity:1;fill-rule:nonzero;stroke:#000000;stroke-width:0.452232;stroke-linecap:butt;stroke-linejoin:round;stroke-miterlimit:4;stroke-dasharray:none;stroke-opacity:1"
           id="path274" /></g><g
         id="g276"><path
           d="m 694.223,395.262 h 20.601"
           style="fill:none;stroke:#000000;stroke-width:0.705743;stroke-linecap:butt;stroke-linejoin:miter;stroke-miterlimit:4;stroke-dasharray:none;stroke-opacity:1"
           id="path278" /></g><g
         id="g280"
         transform="scale(-1)"><path
           d="m -707.77,-395.262 2.825,-2.82 -9.879,2.82 9.879,2.824 z"
           style="fill:#000000;fill-opacity:1;fill-rule:evenodd;stroke:#000000;stroke-width:0.752792;stroke-linecap:butt;stroke-linejoin:round;stroke-miterlimit:4;stroke-dasharray:none;stroke-opacity:1"
           id="path282" /></g><g
         id="g284"><path
           d="m 735.977,395.262 h 20.601"
           style="fill:none;stroke:#000000;stroke-width:0.705743;stroke-linecap:butt;stroke-linejoin:miter;stroke-miterlimit:4;stroke-dasharray:none;stroke-opacity:1"
           id="path286" /></g><g
         id="g288"
         transform="scale(-1)"><path
           d="m -749.52,-395.262 2.825,-2.82 -9.883,2.82 9.883,2.824 z"
           style="fill:#000000;fill-opacity:1;fill-rule:evenodd;stroke:#000000;stroke-width:0.752792;stroke-linecap:butt;stroke-linejoin:round;stroke-miterlimit:4;stroke-dasharray:none;stroke-opacity:1"
           id="path290" /></g><g
         id="g292"><path
           d="m 777.625,395.262 h 20.598"
           style="fill:none;stroke:#000000;stroke-width:0.705743;stroke-linecap:butt;stroke-linejoin:miter;stroke-miterlimit:4;stroke-dasharray:none;stroke-opacity:1"
           id="path294" /></g><g
         id="g296"
         transform="scale(-1)"><path
           d="m -791.168,-395.262 2.824,-2.82 -9.879,2.82 9.879,2.824 z"
           style="fill:#000000;fill-opacity:1;fill-rule:evenodd;stroke:#000000;stroke-width:0.752793;stroke-linecap:butt;stroke-linejoin:round;stroke-miterlimit:4;stroke-dasharray:none;stroke-opacity:1"
           id="path298" /></g><g
         id="g300"><path
           d="m 648.977,5.262 v 71.25 h 25.316"
           style="fill:none;stroke:#000000;stroke-width:0.839055;stroke-linecap:butt;stroke-linejoin:miter;stroke-miterlimit:4;stroke-dasharray:none;stroke-opacity:1"
           id="path302" /></g><g
         id="g304"
         transform="scale(-1)"><path
           d="m -665.902,-76.512 3.355,-3.355 -11.746,3.355 11.746,3.36 z"
           style="fill:#000000;fill-opacity:1;fill-rule:evenodd;stroke:#000000;stroke-width:0.894992;stroke-linecap:butt;stroke-linejoin:round;stroke-miterlimit:4;stroke-dasharray:none;stroke-opacity:1"
           id="path306" /></g><g
         id="g308"><path
           d="m 618.125,110.262 h 56.25"
           style="fill:none;stroke:#000000;stroke-width:0.839055;stroke-linecap:butt;stroke-linejoin:miter;stroke-miterlimit:4;stroke-dasharray:none;stroke-opacity:1"
           id="path310" /></g><g
         id="g312"
         transform="scale(-1)"><path
           d="m -665.984,-110.262 3.355,-3.355 -11.746,3.355 11.746,3.36 z"
           style="fill:#000000;fill-opacity:1;fill-rule:evenodd;stroke:#000000;stroke-width:0.894992;stroke-linecap:butt;stroke-linejoin:round;stroke-miterlimit:4;stroke-dasharray:none;stroke-opacity:1"
           id="path314" /></g><g
         id="g316"><path
           d="m 648.977,307.512 v 71.25 h 25.316"
           style="fill:none;stroke:#000000;stroke-width:0.839055;stroke-linecap:butt;stroke-linejoin:miter;stroke-miterlimit:4;stroke-dasharray:none;stroke-opacity:1"
           id="path318" /></g><g
         id="g320"
         transform="scale(-1)"><path
           d="m -665.902,-378.762 3.355,-3.355 -11.746,3.355 11.746,3.36 z"
           style="fill:#000000;fill-opacity:1;fill-rule:evenodd;stroke:#000000;stroke-width:0.894992;stroke-linecap:butt;stroke-linejoin:round;stroke-miterlimit:4;stroke-dasharray:none;stroke-opacity:1"
           id="path322" /></g><g
         id="g324"><path
           d="m 819.145,93.762 h 47.898"
           style="fill:none;stroke:#000000;stroke-width:0.839055;stroke-linecap:butt;stroke-linejoin:miter;stroke-miterlimit:4;stroke-dasharray:none;stroke-opacity:1"
           id="path326" /></g><g
         id="g328"
         transform="scale(-1)"><path
           d="m -858.652,-93.762 3.355,-3.355 -11.746,3.355 11.746,3.36 z"
           style="fill:#000000;fill-opacity:1;fill-rule:evenodd;stroke:#000000;stroke-width:0.894992;stroke-linecap:butt;stroke-linejoin:round;stroke-miterlimit:4;stroke-dasharray:none;stroke-opacity:1"
           id="path330" /></g><g
         id="g332"><path
           d="m 819.141,395.262 h 47.902"
           style="fill:none;stroke:#000000;stroke-width:0.839055;stroke-linecap:butt;stroke-linejoin:miter;stroke-miterlimit:4;stroke-dasharray:none;stroke-opacity:1"
           id="path334" /></g><g
         id="g336"
         transform="scale(-1)"><path
           d="m -858.652,-395.262 3.355,-3.355 -11.746,3.355 11.746,3.356 z"
           style="fill:#000000;fill-opacity:1;fill-rule:evenodd;stroke:#000000;stroke-width:0.894992;stroke-linecap:butt;stroke-linejoin:round;stroke-miterlimit:4;stroke-dasharray:none;stroke-opacity:1"
           id="path338" /></g></g><g
       id="g340"><g
         id="g342"
         clip-path="url(#clipPath346)"><g
           id="g348"><g
             id="g350"><g
               id="g352"
               clip-path="url(#clipPath356)"><g
                 id="g358"><g
                   id="g360"><path
                     d="m 528.23,220.117 -6.558,-8.754 h 4.918 v -18.601 h 4.918 v 18.601 h 4.918 l -7.375,9.848 z"
                     style="fill:#000000;fill-opacity:1;fill-rule:nonzero;stroke:#000000;stroke-width:0.189401;stroke-linecap:butt;stroke-linejoin:miter;stroke-miterlimit:4;stroke-dasharray:none;stroke-opacity:1"
                     id="path362" /></g></g></g></g></g><g
           id="g364"><path
             d="m 528.969,258.766 32.144,7.527"
             style="fill:none;stroke:#000000;stroke-width:0.527244;stroke-linecap:butt;stroke-linejoin:miter;stroke-miterlimit:4;stroke-dasharray:none;stroke-opacity:1"
             id="path366" /></g><g
           id="g368"
           transform="matrix(-1,-0.234118,0.234118,-1,0,0)"><path
             d="m -585.927,-127.914 2.055,-2.051 -7.189,2.05 7.189,2.055 z"
             style="fill:#000000;fill-opacity:1;fill-rule:evenodd;stroke:#000000;stroke-width:0.547587;stroke-linecap:butt;stroke-linejoin:round;stroke-miterlimit:4;stroke-dasharray:none;stroke-opacity:1"
             id="path370" /></g><g
           id="g372"><path
             d="m 528.977,258.77 -0.028,-30.661"
             style="fill:none;stroke:#000000;stroke-width:0.527244;stroke-linecap:butt;stroke-linejoin:miter;stroke-miterlimit:4;stroke-dasharray:none;stroke-opacity:1"
             id="path374" /></g><g
           id="g376"
           transform="rotate(89.951795)"><path
             d="m 233.828,-528.756 2.111,-2.108 -7.385,2.107 7.381,2.108 z"
             style="fill:#000000;fill-opacity:1;fill-rule:evenodd;stroke:#000000;stroke-width:0.562394;stroke-linecap:butt;stroke-linejoin:round;stroke-miterlimit:4;stroke-dasharray:none;stroke-opacity:1"
             id="path378" /></g><g
           id="g380"><path
             d="m 528.977,258.762 -20.586,22.097"
             style="fill:none;stroke:#000000;stroke-width:0.527244;stroke-linecap:butt;stroke-linejoin:miter;stroke-miterlimit:4;stroke-dasharray:none;stroke-opacity:1"
             id="path382" /></g><g
           id="g384"
           transform="matrix(0.931512,-1,1,0.931512,0,0)"><path
             d="m 107.04,412.276 1.543,-1.543 -5.402,1.543 5.402,1.543 z"
             style="fill:#000000;fill-opacity:1;fill-rule:evenodd;stroke:#000000;stroke-width:0.411514;stroke-linecap:butt;stroke-linejoin:round;stroke-miterlimit:4;stroke-dasharray:none;stroke-opacity:1"
             id="path386" /></g></g></g><g
       id="g388"><g
         id="g390"
         clip-path="url(#clipPath394)"><g
           id="g396"
           clip-path="url(#clipPath400)"><g
             id="g402"><g
               id="g404"><g
                 id="g406"
                 clip-path="url(#clipPath410)"><g
                   id="g412"><g
                     id="g414"><path
                       d="m 541.82,251.469 c 0,2.027 -5.273,3.672 -11.773,3.672 -6.504,0 -11.777,-1.645 -11.777,-3.672 0,-2.028 5.273,-3.668 11.777,-3.668 6.5,0 11.773,1.64 11.773,3.668 z"
                       style="fill:none;stroke:#000000;stroke-width:0.957951;stroke-linecap:butt;stroke-linejoin:round;stroke-miterlimit:4;stroke-dasharray:none;stroke-opacity:1"
                       id="path416" /></g></g></g></g></g></g></g></g><g
       id="g418"><g
         id="g420"
         clip-path="url(#clipPath424)"><g
           id="g426"
           clip-path="url(#clipPath430)"><g
             id="g432"><g
               id="g434"><g
                 id="g436"
                 clip-path="url(#clipPath440)"><g
                   id="g442"><g
                     id="g444"><path
                       d="m 541.859,251.465 c 0,2.027 -5.269,3.668 -11.773,3.668 -6.5,0 -11.774,-1.641 -11.774,-3.668 0,-2.027 5.274,-3.672 11.774,-3.672 6.504,0 11.773,1.645 11.773,3.672 z"
                       style="fill:none;stroke:#000000;stroke-width:0.957951;stroke-linecap:butt;stroke-linejoin:round;stroke-miterlimit:4;stroke-dasharray:none;stroke-opacity:1"
                       id="path446" /></g></g></g></g></g></g></g></g><g
       id="g448"><g
         id="g450"
         clip-path="url(#clipPath454)"><g
           id="g456"
           clip-path="url(#clipPath460)"><g
             id="g462"><g
               id="g464"><g
                 id="g466"
                 clip-path="url(#clipPath470)"><g
                   id="g472"><g
                     id="g474"><path
                       d="m 541.855,251.465 c 0,2.027 -5.269,3.672 -11.773,3.672 -6.504,0 -11.773,-1.645 -11.773,-3.672 0,-2.027 5.269,-3.668 11.773,-3.668 6.504,0 11.773,1.641 11.773,3.668 z"
                       style="fill:none;stroke:#000000;stroke-width:0.957951;stroke-linecap:butt;stroke-linejoin:round;stroke-miterlimit:4;stroke-dasharray:none;stroke-opacity:1"
                       id="path476" /></g></g></g></g></g></g></g></g><g
       id="g478"><g
         id="g480"><path
           d="m 535.535,248.145 -1.535,-0.231 -0.41,-0.062 -1.832,-0.278"
           style="fill:none;stroke:#000000;stroke-width:0.307857;stroke-linecap:butt;stroke-linejoin:miter;stroke-miterlimit:4;stroke-dasharray:none;stroke-opacity:1"
           id="path482" /></g><g
         id="g484"
         transform="matrix(1,0.150634,-0.150634,1,0,0)"><path
           d="m 559.472,163.76 1.215,-1.219 -4.262,1.217 4.266,1.22 z"
           style="fill:#000000;fill-opacity:1;fill-rule:evenodd;stroke:#000000;stroke-width:0.324717;stroke-linecap:butt;stroke-linejoin:round;stroke-miterlimit:4;stroke-dasharray:none;stroke-opacity:1"
           id="path486" /></g></g><g
       id="g488"><g
         id="g490"
         clip-path="url(#clipPath494)"><g
           id="g496"><g
             id="g498"><g
               id="g500"
               clip-path="url(#clipPath504)"><g
                 id="g506"><g
                   id="g508"><path
                     d="m 528.23,300.516 -6.558,-8.754 h 4.918 v -18.606 h 4.918 v 18.606 h 4.918 l -7.375,9.847 z"
                     style="fill:#000000;fill-opacity:1;fill-rule:nonzero;stroke:#000000;stroke-width:0.189401;stroke-linecap:butt;stroke-linejoin:miter;stroke-miterlimit:4;stroke-dasharray:none;stroke-opacity:1"
                     id="path510" /></g></g></g></g></g></g></g><g
       id="g614"><g
         id="g616"><path
           d="m 618.125,412.512 h 56.25"
           style="fill:none;stroke:#000000;stroke-width:0.839055;stroke-linecap:butt;stroke-linejoin:miter;stroke-miterlimit:4;stroke-dasharray:none;stroke-opacity:1"
           id="path618" /></g><g
         id="g620"
         transform="scale(-1)"><path
           d="m -665.984,-412.512 3.355,-3.355 -11.746,3.355 11.746,3.356 z"
           style="fill:#000000;fill-opacity:1;fill-rule:evenodd;stroke:#000000;stroke-width:0.894992;stroke-linecap:butt;stroke-linejoin:round;stroke-miterlimit:4;stroke-dasharray:none;stroke-opacity:1"
           id="path622" /></g><g
         id="g624"><path
           d="m 315.223,189.012 c 0,0 33.75,26.25 48.75,-7.5 15,-33.75 18.75,-45 33.75,-52.5 15,-7.5 15,-7.5 15,-7.5"
           style="fill:none;stroke:#000000;stroke-width:0.751181;stroke-linecap:butt;stroke-linejoin:miter;stroke-miterlimit:4;stroke-dasharray:none;stroke-opacity:1"
           id="path626" /></g><g
         id="g628"
         transform="matrix(-1,0.5,-0.5,-1,0,0)"><path
           d="m -274.855,-262.298 2.688,-2.688 -9.406,2.688 9.406,2.687 z"
           style="fill:#000000;fill-opacity:1;fill-rule:evenodd;stroke:#000000;stroke-width:0.716669;stroke-linecap:butt;stroke-linejoin:round;stroke-miterlimit:4;stroke-dasharray:none;stroke-opacity:1"
           id="path630" /></g><g
         id="g632"><path
           d="m 317.102,188.516 c 0,1.566 -1.27,2.836 -2.836,2.836 -1.563,0 -2.832,-1.27 -2.832,-2.836 0,-1.567 1.269,-2.836 2.832,-2.836 1.566,0 2.836,1.269 2.836,2.836 z"
           style="fill:#ffffff;fill-opacity:1;fill-rule:nonzero;stroke:#000000;stroke-width:0.751181;stroke-linecap:butt;stroke-linejoin:round;stroke-miterlimit:4;stroke-dasharray:18.0283, 18.0283;stroke-dashoffset:0;stroke-opacity:1"
           id="path634" /></g></g><g
       id="g636"><g
         id="g638"
         clip-path="url(#clipPath642)"><g
           id="g644"><g
             id="g646"><g
               id="g648"
               clip-path="url(#clipPath652)"><g
                 id="g654"><g
                   id="g656"><path
                     d="m 1036.914,220.117 -6.559,-8.754 h 4.918 v -18.605 h 4.918 v 18.605 h 4.918 l -7.375,9.848 z"
                     style="fill:#000000;fill-opacity:1;fill-rule:nonzero;stroke:#000000;stroke-width:0.189401;stroke-linecap:butt;stroke-linejoin:miter;stroke-miterlimit:4;stroke-dasharray:none;stroke-opacity:1"
                     id="path658" /></g></g></g></g></g><g
           id="g660"><path
             d="m 1037.656,258.766 32.141,7.523"
             style="fill:none;stroke:#000000;stroke-width:0.527244;stroke-linecap:butt;stroke-linejoin:miter;stroke-miterlimit:4;stroke-dasharray:none;stroke-opacity:1"
             id="path662" /></g><g
           id="g664"
           transform="matrix(-1,-0.234118,0.234118,-1,0,0)"><path
             d="m -1068.177,-15.007 2.054,-2.055 -7.188,2.054 7.188,2.052 z"
             style="fill:#000000;fill-opacity:1;fill-rule:evenodd;stroke:#000000;stroke-width:0.547587;stroke-linecap:butt;stroke-linejoin:round;stroke-miterlimit:4;stroke-dasharray:none;stroke-opacity:1"
             id="path666" /></g><g
           id="g668"><path
             d="m 1037.66,258.77 -0.027,-30.661"
             style="fill:none;stroke:#000000;stroke-width:0.527244;stroke-linecap:butt;stroke-linejoin:miter;stroke-miterlimit:4;stroke-dasharray:none;stroke-opacity:1"
             id="path670" /></g><g
           id="g672"
           transform="rotate(89.951795)"><path
             d="m 234.256,-1037.44 2.107,-2.111 -7.381,2.111 7.381,2.108 z"
             style="fill:#000000;fill-opacity:1;fill-rule:evenodd;stroke:#000000;stroke-width:0.562394;stroke-linecap:butt;stroke-linejoin:round;stroke-miterlimit:4;stroke-dasharray:none;stroke-opacity:1"
             id="path674" /></g><g
           id="g676"><path
             d="m 1037.66,258.758 -20.586,22.101"
             style="fill:none;stroke:#000000;stroke-width:0.527244;stroke-linecap:butt;stroke-linejoin:miter;stroke-miterlimit:4;stroke-dasharray:none;stroke-opacity:1"
             id="path678" /></g><g
           id="g680"
           transform="matrix(0.931512,-1,1,0.931512,0,0)"><path
             d="m 360.743,684.632 1.543,-1.543 -5.402,1.543 5.402,1.543 z"
             style="fill:#000000;fill-opacity:1;fill-rule:evenodd;stroke:#000000;stroke-width:0.411514;stroke-linecap:butt;stroke-linejoin:round;stroke-miterlimit:4;stroke-dasharray:none;stroke-opacity:1"
             id="path682" /></g></g></g><g
       id="g684"><g
         id="g686"
         clip-path="url(#clipPath690)"><g
           id="g692"
           clip-path="url(#clipPath696)"><g
             id="g698"><g
               id="g700"><g
                 id="g702"
                 clip-path="url(#clipPath706)"><g
                   id="g708"><g
                     id="g710"><path
                       d="m 1050.504,251.469 c 0,2.027 -5.274,3.668 -11.774,3.668 -6.503,0 -11.773,-1.641 -11.773,-3.668 0,-2.028 5.27,-3.668 11.773,-3.668 6.5,0 11.774,1.64 11.774,3.668 z"
                       style="fill:none;stroke:#000000;stroke-width:0.957951;stroke-linecap:butt;stroke-linejoin:round;stroke-miterlimit:4;stroke-dasharray:none;stroke-opacity:1"
                       id="path712" /></g></g></g></g></g></g></g></g><g
       id="g714"><g
         id="g716"
         clip-path="url(#clipPath720)"><g
           id="g722"
           clip-path="url(#clipPath726)"><g
             id="g728"><g
               id="g730"><g
                 id="g732"
                 clip-path="url(#clipPath736)"><g
                   id="g738"><g
                     id="g740"><path
                       d="m 1050.547,251.461 c 0,2.027 -5.274,3.672 -11.774,3.672 -6.503,0 -11.777,-1.645 -11.777,-3.672 0,-2.023 5.274,-3.668 11.777,-3.668 6.5,0 11.774,1.645 11.774,3.668 z"
                       style="fill:none;stroke:#000000;stroke-width:0.957951;stroke-linecap:butt;stroke-linejoin:round;stroke-miterlimit:4;stroke-dasharray:none;stroke-opacity:1"
                       id="path742" /></g></g></g></g></g></g></g></g><g
       id="g744"><g
         id="g746"
         clip-path="url(#clipPath750)"><g
           id="g752"
           clip-path="url(#clipPath756)"><g
             id="g758"><g
               id="g760"><g
                 id="g762"
                 clip-path="url(#clipPath766)"><g
                   id="g768"><g
                     id="g770"><path
                       d="m 1050.539,251.465 c 0,2.027 -5.269,3.668 -11.773,3.668 -6.5,0 -11.774,-1.641 -11.774,-3.668 0,-2.027 5.274,-3.672 11.774,-3.672 6.504,0 11.773,1.645 11.773,3.672 z"
                       style="fill:none;stroke:#000000;stroke-width:0.957951;stroke-linecap:butt;stroke-linejoin:round;stroke-miterlimit:4;stroke-dasharray:none;stroke-opacity:1"
                       id="path772" /></g></g></g></g></g></g></g></g><g
       id="g774"><g
         id="g776"><path
           d="m 1044.219,248.145 -1.535,-0.235 -0.411,-0.058 -1.828,-0.278"
           style="fill:none;stroke:#000000;stroke-width:0.307857;stroke-linecap:butt;stroke-linejoin:miter;stroke-miterlimit:4;stroke-dasharray:none;stroke-opacity:1"
           id="path778" /></g><g
         id="g780"
         transform="matrix(1,0.150634,-0.150634,1,0,0)"><path
           d="m 1056.87,88.835 1.219,-1.219 -4.263,1.216 4.262,1.218 z"
           style="fill:#000000;fill-opacity:1;fill-rule:evenodd;stroke:#000000;stroke-width:0.324717;stroke-linecap:butt;stroke-linejoin:round;stroke-miterlimit:4;stroke-dasharray:none;stroke-opacity:1"
           id="path782" /></g></g><g
       id="g784"><g
         id="g786"
         clip-path="url(#clipPath790)"><g
           id="g792"><g
             id="g794"><g
               id="g796"
               clip-path="url(#clipPath800)"><g
                 id="g802"><g
                   id="g804"><path
                     d="m 1036.914,300.512 -6.559,-8.754 h 4.918 v -18.602 h 4.918 v 18.602 h 4.918 l -7.375,9.847 z"
                     style="fill:#000000;fill-opacity:1;fill-rule:nonzero;stroke:#000000;stroke-width:0.189401;stroke-linecap:butt;stroke-linejoin:miter;stroke-miterlimit:4;stroke-dasharray:none;stroke-opacity:1"
                     id="path806" /></g></g></g></g></g></g></g><ellipse
       style="fill:url(#radialGradient6272);fill-opacity:1;stroke:none;stroke-width:3.58264;opacity:0.70512502"
       id="path4098"
       cx="221.26366"
       cy="243.4395"
       rx="213.28093"
       ry="207.23338"
       inkscape:export-filename="teaser_base.png"
       inkscape:export-xdpi="96"
       inkscape:export-ydpi="96" /></g></svg>
